<?xml version="1.0" encoding="UTF-8" standalone="no"?>
<!DOCTYPE svg PUBLIC "-//W3C//DTD SVG 1.1//EN"
 "http://www.w3.org/Graphics/SVG/1.1/DTD/svg11.dtd">
<!-- Generated by graphviz version 2.43.0 (0)
 -->
<!-- Title: dependency&#45;cruiser output Pages: 1 -->
<svg width="526pt" height="698pt"
 viewBox="0.00 0.00 526.00 698.00" xmlns="http://www.w3.org/2000/svg" xmlns:xlink="http://www.w3.org/1999/xlink">
<g id="graph0" class="graph" transform="scale(1 1) rotate(0) translate(4 694)">
<title>dependency&#45;cruiser output</title>
<polygon fill="white" stroke="transparent" points="-4,4 -4,-694 522,-694 522,4 -4,4"/>
<g id="clust1" class="cluster">
<title>cluster_src</title>
<path fill="#ffffff" stroke="black" stroke-width="2" d="M20,-8C20,-8 498,-8 498,-8 504,-8 510,-14 510,-20 510,-20 510,-670 510,-670 510,-676 504,-682 498,-682 498,-682 20,-682 20,-682 14,-682 8,-676 8,-670 8,-670 8,-20 8,-20 8,-14 14,-8 20,-8"/>
<text text-anchor="middle" x="259" y="-670.8" font-family="Helvetica,sans-Serif" font-weight="bold" font-size="9.00">src</text>
</g>
<g id="clust2" class="cluster">
<title>cluster_src/assets</title>
<path fill="#ffffff" stroke="black" stroke-width="2" d="M392,-192C392,-192 476,-192 476,-192 482,-192 488,-198 488,-204 488,-204 488,-262 488,-262 488,-268 482,-274 476,-274 476,-274 392,-274 392,-274 386,-274 380,-268 380,-262 380,-262 380,-204 380,-204 380,-198 386,-192 392,-192"/>
<text text-anchor="middle" x="434" y="-262.8" font-family="Helvetica,sans-Serif" font-weight="bold" font-size="9.00">assets</text>
</g>
<g id="clust3" class="cluster">
<title>cluster_src/components</title>
<path fill="#ffffff" stroke="black" stroke-width="2" d="M255,-308C255,-308 490,-308 490,-308 496,-308 502,-314 502,-320 502,-320 502,-644 502,-644 502,-650 496,-656 490,-656 490,-656 255,-656 255,-656 249,-656 243,-650 243,-644 243,-644 243,-320 243,-320 243,-314 249,-308 255,-308"/>
<text text-anchor="middle" x="372.5" y="-644.8" font-family="Helvetica,sans-Serif" font-weight="bold" font-size="9.00">components</text>
</g>
<g id="clust4" class="cluster">
<title>cluster_src/components/AdminPage</title>
<path fill="#ffffff" stroke="black" stroke-width="2" d="M274,-488C274,-488 482,-488 482,-488 488,-488 494,-494 494,-500 494,-500 494,-618 494,-618 494,-624 488,-630 482,-630 482,-630 274,-630 274,-630 268,-630 262,-624 262,-618 262,-618 262,-500 262,-500 262,-494 268,-488 274,-488"/>
<text text-anchor="middle" x="378" y="-618.8" font-family="Helvetica,sans-Serif" font-weight="bold" font-size="9.00">AdminPage</text>
</g>
<g id="clust5" class="cluster">
<title>cluster_src/components/Bookings</title>
<path fill="#ffffff" stroke="black" stroke-width="2" d="M263,-372C263,-372 360,-372 360,-372 366,-372 372,-378 372,-384 372,-384 372,-442 372,-442 372,-448 366,-454 360,-454 360,-454 263,-454 263,-454 257,-454 251,-448 251,-442 251,-442 251,-384 251,-384 251,-378 257,-372 263,-372"/>
<text text-anchor="middle" x="311.5" y="-442.8" font-family="Helvetica,sans-Serif" font-weight="bold" font-size="9.00">Bookings</text>
</g>
<g id="clust6" class="cluster">
<title>cluster_src/styles</title>
<path fill="#ffffff" stroke="black" stroke-width="2" d="M405.5,-16C405.5,-16 462.5,-16 462.5,-16 468.5,-16 474.5,-22 474.5,-28 474.5,-28 474.5,-146 474.5,-146 474.5,-152 468.5,-158 462.5,-158 462.5,-158 405.5,-158 405.5,-158 399.5,-158 393.5,-152 393.5,-146 393.5,-146 393.5,-28 393.5,-28 393.5,-22 399.5,-16 405.5,-16"/>
<text text-anchor="middle" x="434" y="-146.8" font-family="Helvetica,sans-Serif" font-weight="bold" font-size="9.00">styles</text>
</g>
<g id="clust7" class="cluster">
<title>cluster_src/test</title>
<path fill="#ffffff" stroke="black" stroke-width="2" d="M157,-437C157,-437 223,-437 223,-437 229,-437 235,-443 235,-449 235,-449 235,-507 235,-507 235,-513 229,-519 223,-519 223,-519 157,-519 157,-519 151,-519 145,-513 145,-507 145,-507 145,-449 145,-449 145,-443 151,-437 157,-437"/>
<text text-anchor="middle" x="190" y="-507.8" font-family="Helvetica,sans-Serif" font-weight="bold" font-size="9.00">test</text>
</g>
<!-- src/App.js -->
<g id="node1" class="node">
<title>src/App.js</title>
<g id="a_node1"><a xlink:href="src/App.js" xlink:title="App.js">
<path fill="#ffffcc" stroke="black" d="M131,-341C131,-341 89,-341 89,-341 86,-341 83,-338 83,-335 83,-335 83,-329 83,-329 83,-326 86,-323 89,-323 89,-323 131,-323 131,-323 134,-323 137,-326 137,-329 137,-329 137,-335 137,-335 137,-338 134,-341 131,-341"/>
<text text-anchor="middle" x="110" y="-329.8" font-family="Helvetica,sans-Serif" font-size="9.00">App.js</text>
</a>
</g>
</g>
<!-- src/Booking.js -->
<g id="node2" class="node">
<title>src/Booking.js</title>
<g id="a_node2"><a xlink:href="src/Booking.js" xlink:title="Booking.js">
<path fill="#ffffcc" stroke="black" d="M215,-341C215,-341 165,-341 165,-341 162,-341 159,-338 159,-335 159,-335 159,-329 159,-329 159,-326 162,-323 165,-323 165,-323 215,-323 215,-323 218,-323 221,-326 221,-329 221,-329 221,-335 221,-335 221,-338 218,-341 215,-341"/>
<text text-anchor="middle" x="190" y="-329.8" font-family="Helvetica,sans-Serif" font-size="9.00">Booking.js</text>
</a>
</g>
</g>
<!-- src/App.js&#45;&gt;src/Booking.js -->
<g id="edge1" class="edge">
<title>src/App.js&#45;&gt;src/Booking.js</title>
<path fill="none" stroke="#000000" stroke-width="2" stroke-opacity="0.200000" d="M137.41,-332C142.36,-332 147.62,-332 152.81,-332"/>
<polygon fill="#000000" fill-opacity="0.200000" stroke="#000000" stroke-width="2" stroke-opacity="0.200000" points="152.86,-334.1 158.86,-332 152.86,-329.9 152.86,-334.1"/>
</g>
<!-- src/components/AdminPage/AdminPage.jsx -->
<g id="node3" class="node">
<title>src/components/AdminPage/AdminPage.jsx</title>
<g id="a_node3"><a xlink:href="src/components/AdminPage/AdminPage.jsx" xlink:title="AdminPage.jsx">
<path fill="#ffff77" stroke="black" d="M347,-514C347,-514 276,-514 276,-514 273,-514 270,-511 270,-508 270,-508 270,-502 270,-502 270,-499 273,-496 276,-496 276,-496 347,-496 347,-496 350,-496 353,-499 353,-502 353,-502 353,-508 353,-508 353,-511 350,-514 347,-514"/>
<text text-anchor="middle" x="311.5" y="-502.8" font-family="Helvetica,sans-Serif" font-size="9.00">AdminPage.jsx</text>
</a>
</g>
</g>
<!-- src/App.js&#45;&gt;src/components/AdminPage/AdminPage.jsx -->
<g id="edge2" class="edge">
<title>src/App.js&#45;&gt;src/components/AdminPage/AdminPage.jsx</title>
<path fill="none" stroke="#000000" stroke-width="2" stroke-opacity="0.200000" d="M111.69,-341.07C113.57,-359.03 120.45,-399.07 145,-419 176.49,-444.55 206.73,-404.93 235,-434 253.14,-452.66 225.1,-473.12 243,-492 248.56,-497.87 255.91,-501.54 263.7,-503.77"/>
<polygon fill="#000000" fill-opacity="0.200000" stroke="#000000" stroke-width="2" stroke-opacity="0.200000" points="263.4,-505.85 269.73,-505.2 264.38,-501.77 263.4,-505.85"/>
</g>
<!-- src/components/NavigationBar.js -->
<g id="node4" class="node">
<title>src/components/NavigationBar.js</title>
<g id="a_node4"><a xlink:href="src/components/NavigationBar.js" xlink:title="NavigationBar.js">
<path fill="#ffffcc" stroke="black" d="M349.5,-364C349.5,-364 273.5,-364 273.5,-364 270.5,-364 267.5,-361 267.5,-358 267.5,-358 267.5,-352 267.5,-352 267.5,-349 270.5,-346 273.5,-346 273.5,-346 349.5,-346 349.5,-346 352.5,-346 355.5,-349 355.5,-352 355.5,-352 355.5,-358 355.5,-358 355.5,-361 352.5,-364 349.5,-364"/>
<text text-anchor="middle" x="311.5" y="-352.8" font-family="Helvetica,sans-Serif" font-size="9.00">NavigationBar.js</text>
</a>
</g>
</g>
<!-- src/App.js&#45;&gt;src/components/NavigationBar.js -->
<g id="edge3" class="edge">
<title>src/App.js&#45;&gt;src/components/NavigationBar.js</title>
<path fill="none" stroke="#000000" stroke-width="2" stroke-opacity="0.200000" d="M128.89,-322.84C154.81,-310.99 203.19,-294.38 235,-317 243.82,-323.27 234.92,-332.8 243,-340 248.32,-344.74 254.81,-348.09 261.63,-350.43"/>
<polygon fill="#000000" fill-opacity="0.200000" stroke="#000000" stroke-width="2" stroke-opacity="0.200000" points="261.07,-352.46 267.42,-352.18 262.28,-348.44 261.07,-352.46"/>
</g>
<!-- src/components/Profile.jsx -->
<g id="node5" class="node">
<title>src/components/Profile.jsx</title>
<g id="a_node5"><a xlink:href="src/components/Profile.jsx" xlink:title="Profile.jsx">
<path fill="#ffff77" stroke="black" d="M335,-480C335,-480 288,-480 288,-480 285,-480 282,-477 282,-474 282,-474 282,-468 282,-468 282,-465 285,-462 288,-462 288,-462 335,-462 335,-462 338,-462 341,-465 341,-468 341,-468 341,-474 341,-474 341,-477 338,-480 335,-480"/>
<text text-anchor="middle" x="311.5" y="-468.8" font-family="Helvetica,sans-Serif" font-size="9.00">Profile.jsx</text>
</a>
</g>
</g>
<!-- src/App.js&#45;&gt;src/components/Profile.jsx -->
<g id="edge4" class="edge">
<title>src/App.js&#45;&gt;src/components/Profile.jsx</title>
<path fill="none" stroke="#000000" stroke-width="2" stroke-opacity="0.200000" d="M112.36,-341.04C115.26,-357.03 123.64,-390.22 145,-407 177.01,-432.15 205.49,-395.96 235,-424 245.94,-434.39 232.15,-446.51 243,-457 251.72,-465.43 264.11,-469.38 275.9,-471.08"/>
<polygon fill="#000000" fill-opacity="0.200000" stroke="#000000" stroke-width="2" stroke-opacity="0.200000" points="275.79,-473.18 281.99,-471.77 276.27,-469.01 275.79,-473.18"/>
</g>
<!-- src/ErrorPage.js -->
<g id="node6" class="node">
<title>src/ErrorPage.js</title>
<g id="a_node6"><a xlink:href="src/ErrorPage.js" xlink:title="ErrorPage.js">
<path fill="#ffffcc" stroke="black" d="M219.5,-371C219.5,-371 160.5,-371 160.5,-371 157.5,-371 154.5,-368 154.5,-365 154.5,-365 154.5,-359 154.5,-359 154.5,-356 157.5,-353 160.5,-353 160.5,-353 219.5,-353 219.5,-353 222.5,-353 225.5,-356 225.5,-359 225.5,-359 225.5,-365 225.5,-365 225.5,-368 222.5,-371 219.5,-371"/>
<text text-anchor="middle" x="190" y="-359.8" font-family="Helvetica,sans-Serif" font-size="9.00">ErrorPage.js</text>
</a>
</g>
</g>
<!-- src/App.js&#45;&gt;src/ErrorPage.js -->
<g id="edge5" class="edge">
<title>src/App.js&#45;&gt;src/ErrorPage.js</title>
<path fill="none" stroke="#000000" stroke-width="2" stroke-opacity="0.200000" d="M130.65,-341.02C135.32,-343.06 140.31,-345.17 145,-347 148.28,-348.28 151.71,-349.56 155.15,-350.8"/>
<polygon fill="#000000" fill-opacity="0.200000" stroke="#000000" stroke-width="2" stroke-opacity="0.200000" points="154.58,-352.82 160.94,-352.84 155.98,-348.86 154.58,-352.82"/>
</g>
<!-- src/Home.js -->
<g id="node7" class="node">
<title>src/Home.js</title>
<g id="a_node7"><a xlink:href="src/Home.js" xlink:title="Home.js">
<path fill="#ffffcc" stroke="black" d="M211,-401C211,-401 169,-401 169,-401 166,-401 163,-398 163,-395 163,-395 163,-389 163,-389 163,-386 166,-383 169,-383 169,-383 211,-383 211,-383 214,-383 217,-386 217,-389 217,-389 217,-395 217,-395 217,-398 214,-401 211,-401"/>
<text text-anchor="middle" x="190" y="-389.8" font-family="Helvetica,sans-Serif" font-size="9.00">Home.js</text>
</a>
</g>
</g>
<!-- src/App.js&#45;&gt;src/Home.js -->
<g id="edge6" class="edge">
<title>src/App.js&#45;&gt;src/Home.js</title>
<path fill="none" stroke="#000000" stroke-width="2" stroke-opacity="0.200000" d="M115.77,-341.24C121.44,-351.38 131.83,-367.47 145,-377 148.6,-379.6 152.68,-381.78 156.87,-383.59"/>
<polygon fill="#000000" fill-opacity="0.200000" stroke="#000000" stroke-width="2" stroke-opacity="0.200000" points="156.27,-385.61 162.62,-385.84 157.8,-381.7 156.27,-385.61"/>
</g>
<!-- src/LoginBackend.js -->
<g id="node8" class="node">
<title>src/LoginBackend.js</title>
<g id="a_node8"><a xlink:href="src/LoginBackend.js" xlink:title="LoginBackend.js">
<path fill="#ffffcc" stroke="black" d="M473,-184C473,-184 395,-184 395,-184 392,-184 389,-181 389,-178 389,-178 389,-172 389,-172 389,-169 392,-166 395,-166 395,-166 473,-166 473,-166 476,-166 479,-169 479,-172 479,-172 479,-178 479,-178 479,-181 476,-184 473,-184"/>
<text text-anchor="middle" x="434" y="-172.8" font-family="Helvetica,sans-Serif" font-size="9.00">LoginBackend.js</text>
</a>
</g>
</g>
<!-- src/App.js&#45;&gt;src/LoginBackend.js -->
<g id="edge7" class="edge">
<title>src/App.js&#45;&gt;src/LoginBackend.js</title>
<path fill="none" stroke="#000000" stroke-width="2" stroke-opacity="0.200000" d="M120.03,-322.97C126.62,-316.66 135.94,-308.27 145,-302 240.29,-236.05 270.69,-227.49 380,-189 383.14,-187.89 386.42,-186.83 389.73,-185.81"/>
<polygon fill="#000000" fill-opacity="0.200000" stroke="#000000" stroke-width="2" stroke-opacity="0.200000" points="390.55,-187.76 395.7,-184.04 389.35,-183.73 390.55,-187.76"/>
</g>
<!-- src/styles/App.css -->
<g id="node9" class="node">
<title>src/styles/App.css</title>
<g id="a_node9"><a xlink:href="src/styles/App.css" xlink:title="App.css">
<path fill="#ffffcc" stroke="black" d="M455,-72C455,-72 413,-72 413,-72 410,-72 407,-69 407,-66 407,-66 407,-60 407,-60 407,-57 410,-54 413,-54 413,-54 455,-54 455,-54 458,-54 461,-57 461,-60 461,-60 461,-66 461,-66 461,-69 458,-72 455,-72"/>
<text text-anchor="middle" x="434" y="-60.8" font-family="Helvetica,sans-Serif" font-size="9.00">App.css</text>
</a>
</g>
</g>
<!-- src/App.js&#45;&gt;src/styles/App.css -->
<g id="edge8" class="edge">
<title>src/App.js&#45;&gt;src/styles/App.css</title>
<path fill="none" stroke="#000000" stroke-width="2" stroke-opacity="0.200000" d="M112.65,-322.79C116.12,-305.59 125.48,-268.05 145,-243 223.42,-142.32 264.75,-132.82 380,-78 386.54,-74.89 393.86,-72.3 400.91,-70.21"/>
<polygon fill="#000000" fill-opacity="0.200000" stroke="#000000" stroke-width="2" stroke-opacity="0.200000" points="401.55,-72.21 406.76,-68.56 400.41,-68.17 401.55,-72.21"/>
</g>
<!-- src/components/Bookings/GymBooking.js -->
<g id="node10" class="node">
<title>src/components/Bookings/GymBooking.js</title>
<g id="a_node10"><a xlink:href="src/components/Bookings/GymBooking.js" xlink:title="GymBooking.js">
<path fill="#ffffcc" stroke="black" d="M347,-398C347,-398 276,-398 276,-398 273,-398 270,-395 270,-392 270,-392 270,-386 270,-386 270,-383 273,-380 276,-380 276,-380 347,-380 347,-380 350,-380 353,-383 353,-386 353,-386 353,-392 353,-392 353,-395 350,-398 347,-398"/>
<text text-anchor="middle" x="311.5" y="-386.8" font-family="Helvetica,sans-Serif" font-size="9.00">GymBooking.js</text>
</a>
</g>
</g>
<!-- src/Booking.js&#45;&gt;src/components/Bookings/GymBooking.js -->
<g id="edge9" class="edge">
<title>src/Booking.js&#45;&gt;src/components/Bookings/GymBooking.js</title>
<path fill="none" stroke="#000000" stroke-width="2" stroke-opacity="0.200000" d="M221.25,-337.93C226.37,-340.08 231.24,-343.01 235,-347 244.17,-356.73 233.18,-366.93 243,-376 248.8,-381.36 256.1,-384.81 263.75,-386.99"/>
<polygon fill="#000000" fill-opacity="0.200000" stroke="#000000" stroke-width="2" stroke-opacity="0.200000" points="263.33,-389.05 269.65,-388.42 264.32,-384.97 263.33,-389.05"/>
</g>
<!-- src/components/Bookings/LaundryBooking.jsx -->
<g id="node11" class="node">
<title>src/components/Bookings/LaundryBooking.jsx</title>
<g id="a_node11"><a xlink:href="src/components/Bookings/LaundryBooking.jsx" xlink:title="LaundryBooking.jsx">
<path fill="#ffff77" stroke="black" d="M358,-428C358,-428 265,-428 265,-428 262,-428 259,-425 259,-422 259,-422 259,-416 259,-416 259,-413 262,-410 265,-410 265,-410 358,-410 358,-410 361,-410 364,-413 364,-416 364,-416 364,-422 364,-422 364,-425 361,-428 358,-428"/>
<text text-anchor="middle" x="311.5" y="-416.8" font-family="Helvetica,sans-Serif" font-size="9.00">LaundryBooking.jsx</text>
</a>
</g>
</g>
<!-- src/Booking.js&#45;&gt;src/components/Bookings/LaundryBooking.jsx -->
<g id="edge10" class="edge">
<title>src/Booking.js&#45;&gt;src/components/Bookings/LaundryBooking.jsx</title>
<path fill="none" stroke="#000000" stroke-width="2" stroke-opacity="0.200000" d="M221.23,-337.35C226.48,-339.55 231.4,-342.65 235,-347 251.3,-366.72 225.64,-385.21 243,-404 246.02,-407.27 249.59,-409.91 253.48,-412.03"/>
<polygon fill="#000000" fill-opacity="0.200000" stroke="#000000" stroke-width="2" stroke-opacity="0.200000" points="252.64,-413.96 258.96,-414.61 254.43,-410.16 252.64,-413.96"/>
</g>
<!-- src/components/AdminPage/BookingHistory.jsx -->
<g id="node16" class="node">
<title>src/components/AdminPage/BookingHistory.jsx</title>
<g id="a_node16"><a xlink:href="src/components/AdminPage/BookingHistory.jsx" xlink:title="BookingHistory.jsx">
<path fill="#ffff77" stroke="black" d="M477,-514C477,-514 391,-514 391,-514 388,-514 385,-511 385,-508 385,-508 385,-502 385,-502 385,-499 388,-496 391,-496 391,-496 477,-496 477,-496 480,-496 483,-499 483,-502 483,-502 483,-508 483,-508 483,-511 480,-514 477,-514"/>
<text text-anchor="middle" x="434" y="-502.8" font-family="Helvetica,sans-Serif" font-size="9.00">BookingHistory.jsx</text>
</a>
</g>
</g>
<!-- src/components/AdminPage/AdminPage.jsx&#45;&gt;src/components/AdminPage/BookingHistory.jsx -->
<g id="edge12" class="edge">
<title>src/components/AdminPage/AdminPage.jsx&#45;&gt;src/components/AdminPage/BookingHistory.jsx</title>
<path fill="none" stroke="#000000" stroke-width="2" stroke-opacity="0.200000" d="M353.3,-505C361.35,-505 369.92,-505 378.34,-505"/>
<polygon fill="#000000" fill-opacity="0.200000" stroke="#000000" stroke-width="2" stroke-opacity="0.200000" points="378.75,-507.1 384.75,-505 378.75,-502.9 378.75,-507.1"/>
</g>
<!-- src/components/AdminPage/HandleBookings.jsx -->
<g id="node17" class="node">
<title>src/components/AdminPage/HandleBookings.jsx</title>
<g id="a_node17"><a xlink:href="src/components/AdminPage/HandleBookings.jsx" xlink:title="HandleBookings.jsx">
<path fill="#ffff77" stroke="black" d="M480,-544C480,-544 388,-544 388,-544 385,-544 382,-541 382,-538 382,-538 382,-532 382,-532 382,-529 385,-526 388,-526 388,-526 480,-526 480,-526 483,-526 486,-529 486,-532 486,-532 486,-538 486,-538 486,-541 483,-544 480,-544"/>
<text text-anchor="middle" x="434" y="-532.8" font-family="Helvetica,sans-Serif" font-size="9.00">HandleBookings.jsx</text>
</a>
</g>
</g>
<!-- src/components/AdminPage/AdminPage.jsx&#45;&gt;src/components/AdminPage/HandleBookings.jsx -->
<g id="edge13" class="edge">
<title>src/components/AdminPage/AdminPage.jsx&#45;&gt;src/components/AdminPage/HandleBookings.jsx</title>
<path fill="none" stroke="#000000" stroke-width="2" stroke-opacity="0.200000" d="M348.65,-514C361.76,-517.26 376.69,-520.98 390.3,-524.37"/>
<polygon fill="#000000" fill-opacity="0.200000" stroke="#000000" stroke-width="2" stroke-opacity="0.200000" points="390.13,-526.49 396.46,-525.9 391.14,-522.41 390.13,-526.49"/>
</g>
<!-- src/components/AdminPage/HandleUsers.jsx -->
<g id="node18" class="node">
<title>src/components/AdminPage/HandleUsers.jsx</title>
<g id="a_node18"><a xlink:href="src/components/AdminPage/HandleUsers.jsx" xlink:title="HandleUsers.jsx">
<path fill="#ffff77" stroke="black" d="M472,-574C472,-574 396,-574 396,-574 393,-574 390,-571 390,-568 390,-568 390,-562 390,-562 390,-559 393,-556 396,-556 396,-556 472,-556 472,-556 475,-556 478,-559 478,-562 478,-562 478,-568 478,-568 478,-571 475,-574 472,-574"/>
<text text-anchor="middle" x="434" y="-562.8" font-family="Helvetica,sans-Serif" font-size="9.00">HandleUsers.jsx</text>
</a>
</g>
</g>
<!-- src/components/AdminPage/AdminPage.jsx&#45;&gt;src/components/AdminPage/HandleUsers.jsx -->
<g id="edge14" class="edge">
<title>src/components/AdminPage/AdminPage.jsx&#45;&gt;src/components/AdminPage/HandleUsers.jsx</title>
<path fill="none" stroke="#000000" stroke-width="2" stroke-opacity="0.200000" d="M323.79,-514.15C336.69,-524.2 358.77,-540.21 380,-550 383.04,-551.4 386.24,-552.7 389.5,-553.9"/>
<polygon fill="#000000" fill-opacity="0.200000" stroke="#000000" stroke-width="2" stroke-opacity="0.200000" points="389.05,-555.96 395.4,-555.94 390.42,-551.99 389.05,-555.96"/>
</g>
<!-- src/components/AdminPage/MyFacilities.jsx -->
<g id="node19" class="node">
<title>src/components/AdminPage/MyFacilities.jsx</title>
<g id="a_node19"><a xlink:href="src/components/AdminPage/MyFacilities.jsx" xlink:title="MyFacilities.jsx">
<path fill="#ffff77" stroke="black" d="M469,-604C469,-604 399,-604 399,-604 396,-604 393,-601 393,-598 393,-598 393,-592 393,-592 393,-589 396,-586 399,-586 399,-586 469,-586 469,-586 472,-586 475,-589 475,-592 475,-592 475,-598 475,-598 475,-601 472,-604 469,-604"/>
<text text-anchor="middle" x="434" y="-592.8" font-family="Helvetica,sans-Serif" font-size="9.00">MyFacilities.jsx</text>
</a>
</g>
</g>
<!-- src/components/AdminPage/AdminPage.jsx&#45;&gt;src/components/AdminPage/MyFacilities.jsx -->
<g id="edge15" class="edge">
<title>src/components/AdminPage/AdminPage.jsx&#45;&gt;src/components/AdminPage/MyFacilities.jsx</title>
<path fill="none" stroke="#000000" stroke-width="2" stroke-opacity="0.200000" d="M318.17,-514.13C328.5,-529.96 351.89,-562.5 380,-580 382.24,-581.39 384.61,-582.66 387.06,-583.81"/>
<polygon fill="#000000" fill-opacity="0.200000" stroke="#000000" stroke-width="2" stroke-opacity="0.200000" points="386.54,-585.88 392.88,-586.3 388.19,-582.01 386.54,-585.88"/>
</g>
<!-- src/components/NavigationBar.js&#45;&gt;src/LoginBackend.js -->
<g id="edge22" class="edge">
<title>src/components/NavigationBar.js&#45;&gt;src/LoginBackend.js</title>
<path fill="none" stroke="#000000" stroke-width="2" stroke-opacity="0.200000" d="M355.69,-351.12C361.97,-348.72 367.74,-345.18 372,-340 393.35,-314.05 358.8,-215.07 380,-189 381.05,-187.71 382.21,-186.53 383.45,-185.45"/>
<polygon fill="#000000" fill-opacity="0.200000" stroke="#000000" stroke-width="2" stroke-opacity="0.200000" points="384.94,-186.96 388.61,-181.77 382.5,-183.54 384.94,-186.96"/>
</g>
<!-- src/assets/msdos&#45;logo.png -->
<g id="node15" class="node">
<title>src/assets/msdos&#45;logo.png</title>
<g id="a_node15"><a xlink:href="src/assets/msdos-logo.png" xlink:title="msdos&#45;logo.png">
<path fill="#ffffcc" stroke="black" d="M472.5,-218C472.5,-218 395.5,-218 395.5,-218 392.5,-218 389.5,-215 389.5,-212 389.5,-212 389.5,-206 389.5,-206 389.5,-203 392.5,-200 395.5,-200 395.5,-200 472.5,-200 472.5,-200 475.5,-200 478.5,-203 478.5,-206 478.5,-206 478.5,-212 478.5,-212 478.5,-215 475.5,-218 472.5,-218"/>
<text text-anchor="middle" x="434" y="-206.8" font-family="Helvetica,sans-Serif" font-size="9.00">msdos&#45;logo.png</text>
</a>
</g>
</g>
<!-- src/components/NavigationBar.js&#45;&gt;src/assets/msdos&#45;logo.png -->
<g id="edge21" class="edge">
<title>src/components/NavigationBar.js&#45;&gt;src/assets/msdos&#45;logo.png</title>
<path fill="none" stroke="#000000" stroke-width="2" stroke-opacity="0.200000" d="M355.62,-351.06C361.91,-348.67 367.7,-345.15 372,-340 388.57,-320.18 363.71,-244.06 380,-224 381.19,-222.54 382.5,-221.21 383.93,-220.01"/>
<polygon fill="#000000" fill-opacity="0.200000" stroke="#000000" stroke-width="2" stroke-opacity="0.200000" points="385.4,-221.54 389.12,-216.38 383,-218.1 385.4,-221.54"/>
</g>
<!-- src/styles/Navbar.css -->
<g id="node21" class="node">
<title>src/styles/Navbar.css</title>
<g id="a_node21"><a xlink:href="src/styles/Navbar.css" xlink:title="Navbar.css">
<path fill="#ffffcc" stroke="black" d="M460.5,-132C460.5,-132 407.5,-132 407.5,-132 404.5,-132 401.5,-129 401.5,-126 401.5,-126 401.5,-120 401.5,-120 401.5,-117 404.5,-114 407.5,-114 407.5,-114 460.5,-114 460.5,-114 463.5,-114 466.5,-117 466.5,-120 466.5,-120 466.5,-126 466.5,-126 466.5,-129 463.5,-132 460.5,-132"/>
<text text-anchor="middle" x="434" y="-120.8" font-family="Helvetica,sans-Serif" font-size="9.00">Navbar.css</text>
</a>
</g>
</g>
<!-- src/components/NavigationBar.js&#45;&gt;src/styles/Navbar.css -->
<g id="edge23" class="edge">
<title>src/components/NavigationBar.js&#45;&gt;src/styles/Navbar.css</title>
<path fill="none" stroke="#000000" stroke-width="2" stroke-opacity="0.200000" d="M355.75,-351.17C362.02,-348.77 367.77,-345.21 372,-340 386.29,-322.38 365.65,-153.57 380,-136 383.95,-131.16 389.39,-127.95 395.29,-125.85"/>
<polygon fill="#000000" fill-opacity="0.200000" stroke="#000000" stroke-width="2" stroke-opacity="0.200000" points="396.12,-127.79 401.3,-124.1 394.95,-123.76 396.12,-127.79"/>
</g>
<!-- src/components/Profile.jsx&#45;&gt;src/LoginBackend.js -->
<g id="edge25" class="edge">
<title>src/components/Profile.jsx&#45;&gt;src/LoginBackend.js</title>
<path fill="none" stroke="#000000" stroke-width="2" stroke-opacity="0.200000" d="M341.28,-471.36C352.59,-469.9 364.62,-466.04 372,-457 390.84,-433.92 361.47,-212.33 380,-189 381.04,-187.7 382.18,-186.5 383.41,-185.42"/>
<polygon fill="#000000" fill-opacity="0.200000" stroke="#000000" stroke-width="2" stroke-opacity="0.200000" points="384.9,-186.93 388.53,-181.71 382.44,-183.52 384.9,-186.93"/>
</g>
<!-- src/assets/greenCheck.png -->
<g id="node14" class="node">
<title>src/assets/greenCheck.png</title>
<g id="a_node14"><a xlink:href="src/assets/greenCheck.png" xlink:title="greenCheck.png">
<path fill="#ffffcc" stroke="black" d="M474,-248C474,-248 394,-248 394,-248 391,-248 388,-245 388,-242 388,-242 388,-236 388,-236 388,-233 391,-230 394,-230 394,-230 474,-230 474,-230 477,-230 480,-233 480,-236 480,-236 480,-242 480,-242 480,-245 477,-248 474,-248"/>
<text text-anchor="middle" x="434" y="-236.8" font-family="Helvetica,sans-Serif" font-size="9.00">greenCheck.png</text>
</a>
</g>
</g>
<!-- src/components/Profile.jsx&#45;&gt;src/assets/greenCheck.png -->
<g id="edge24" class="edge">
<title>src/components/Profile.jsx&#45;&gt;src/assets/greenCheck.png</title>
<path fill="none" stroke="#000000" stroke-width="2" stroke-opacity="0.200000" d="M341.24,-471.32C352.55,-469.86 364.58,-466.01 372,-457 386.5,-439.41 365.58,-269.66 380,-252 380.81,-251.01 381.68,-250.09 382.6,-249.23"/>
<polygon fill="#000000" fill-opacity="0.200000" stroke="#000000" stroke-width="2" stroke-opacity="0.200000" points="384.1,-250.73 387.63,-245.45 381.57,-247.38 384.1,-250.73"/>
</g>
<!-- src/components/Login.jsx -->
<g id="node13" class="node">
<title>src/components/Login.jsx</title>
<g id="a_node13"><a xlink:href="src/components/Login.jsx" xlink:title="Login.jsx">
<path fill="#ffff77" stroke="black" d="M333.5,-334C333.5,-334 289.5,-334 289.5,-334 286.5,-334 283.5,-331 283.5,-328 283.5,-328 283.5,-322 283.5,-322 283.5,-319 286.5,-316 289.5,-316 289.5,-316 333.5,-316 333.5,-316 336.5,-316 339.5,-319 339.5,-322 339.5,-322 339.5,-328 339.5,-328 339.5,-331 336.5,-334 333.5,-334"/>
<text text-anchor="middle" x="311.5" y="-322.8" font-family="Helvetica,sans-Serif" font-size="9.00">Login.jsx</text>
</a>
</g>
</g>
<!-- src/Home.js&#45;&gt;src/components/Login.jsx -->
<g id="edge11" class="edge">
<title>src/Home.js&#45;&gt;src/components/Login.jsx</title>
<path fill="none" stroke="#000000" stroke-width="2" stroke-opacity="0.200000" d="M217.33,-387.8C223.9,-385.58 230.38,-382.18 235,-377 246.19,-364.44 231.14,-351.93 243,-340 251.87,-331.08 264.78,-326.95 276.94,-325.18"/>
<polygon fill="#000000" fill-opacity="0.200000" stroke="#000000" stroke-width="2" stroke-opacity="0.200000" points="277.48,-327.23 283.2,-324.46 277,-323.06 277.48,-327.23"/>
</g>
<!-- src/components/Bookings/GymBooking.js&#45;&gt;src/styles/App.css -->
<g id="edge17" class="edge">
<title>src/components/Bookings/GymBooking.js&#45;&gt;src/styles/App.css</title>
<path fill="none" stroke="#000000" stroke-width="2" stroke-opacity="0.200000" d="M353.01,-387.6C360.32,-385.46 367.15,-381.87 372,-376 393.12,-350.48 359.67,-104.15 380,-78 385.1,-71.44 392.84,-67.61 400.84,-65.4"/>
<polygon fill="#000000" fill-opacity="0.200000" stroke="#000000" stroke-width="2" stroke-opacity="0.200000" points="401.58,-67.39 406.97,-64.02 400.66,-63.29 401.58,-67.39"/>
</g>
<!-- src/Emailer.js -->
<g id="node12" class="node">
<title>src/Emailer.js</title>
<g id="a_node12"><a xlink:href="src/Emailer.js" xlink:title="Emailer.js">
<path fill="#ffffcc" stroke="black" d="M457.5,-300C457.5,-300 410.5,-300 410.5,-300 407.5,-300 404.5,-297 404.5,-294 404.5,-294 404.5,-288 404.5,-288 404.5,-285 407.5,-282 410.5,-282 410.5,-282 457.5,-282 457.5,-282 460.5,-282 463.5,-285 463.5,-288 463.5,-288 463.5,-294 463.5,-294 463.5,-297 460.5,-300 457.5,-300"/>
<text text-anchor="middle" x="434" y="-288.8" font-family="Helvetica,sans-Serif" font-size="9.00">Emailer.js</text>
</a>
</g>
</g>
<!-- src/components/Bookings/GymBooking.js&#45;&gt;src/Emailer.js -->
<g id="edge16" class="edge">
<title>src/components/Bookings/GymBooking.js&#45;&gt;src/Emailer.js</title>
<path fill="none" stroke="#000000" stroke-width="2" stroke-opacity="0.200000" d="M353.16,-384.31C359.8,-382.39 366.35,-379.72 372,-376 398.68,-358.45 417.49,-324.92 426.65,-305.63"/>
<polygon fill="#000000" fill-opacity="0.200000" stroke="#000000" stroke-width="2" stroke-opacity="0.200000" points="428.58,-306.46 429.18,-300.14 424.76,-304.71 428.58,-306.46"/>
</g>
<!-- src/components/Bookings/LaundryBooking.jsx&#45;&gt;src/Emailer.js -->
<g id="edge18" class="edge">
<title>src/components/Bookings/LaundryBooking.jsx&#45;&gt;src/Emailer.js</title>
<path fill="none" stroke="#000000" stroke-width="2" stroke-opacity="0.200000" d="M362.39,-409.88C365.81,-408.23 369.06,-406.29 372,-404 404.62,-378.61 421.99,-330.71 429.09,-306.24"/>
<polygon fill="#000000" fill-opacity="0.200000" stroke="#000000" stroke-width="2" stroke-opacity="0.200000" points="431.16,-306.61 430.75,-300.27 427.12,-305.49 431.16,-306.61"/>
</g>
<!-- src/components/Login.jsx&#45;&gt;src/LoginBackend.js -->
<g id="edge19" class="edge">
<title>src/components/Login.jsx&#45;&gt;src/LoginBackend.js</title>
<path fill="none" stroke="#000000" stroke-width="2" stroke-opacity="0.200000" d="M339.55,-325.9C351.26,-324.78 364.07,-321.22 372,-312 389.86,-291.23 362.59,-210.15 380,-189 381.06,-187.71 382.22,-186.54 383.47,-185.46"/>
<polygon fill="#000000" fill-opacity="0.200000" stroke="#000000" stroke-width="2" stroke-opacity="0.200000" points="384.96,-186.98 388.64,-181.8 382.53,-183.55 384.96,-186.98"/>
</g>
<!-- src/styles/login.css -->
<g id="node20" class="node">
<title>src/styles/login.css</title>
<g id="a_node20"><a xlink:href="src/styles/login.css" xlink:title="login.css">
<path fill="#ffffcc" stroke="black" d="M456,-102C456,-102 412,-102 412,-102 409,-102 406,-99 406,-96 406,-96 406,-90 406,-90 406,-87 409,-84 412,-84 412,-84 456,-84 456,-84 459,-84 462,-87 462,-90 462,-90 462,-96 462,-96 462,-99 459,-102 456,-102"/>
<text text-anchor="middle" x="434" y="-90.8" font-family="Helvetica,sans-Serif" font-size="9.00">login.css</text>
</a>
</g>
</g>
<!-- src/components/Login.jsx&#45;&gt;src/styles/login.css -->
<g id="edge20" class="edge">
<title>src/components/Login.jsx&#45;&gt;src/styles/login.css</title>
<path fill="none" stroke="#000000" stroke-width="2" stroke-opacity="0.200000" d="M339.66,-326C351.39,-324.89 364.19,-321.32 372,-312 386.57,-294.61 365.97,-125.82 380,-108 384.95,-101.71 392.33,-97.93 400.01,-95.69"/>
<polygon fill="#000000" fill-opacity="0.200000" stroke="#000000" stroke-width="2" stroke-opacity="0.200000" points="400.58,-97.72 405.92,-94.27 399.59,-93.64 400.58,-97.72"/>
</g>
<!-- src/index.js -->
<g id="node22" class="node">
<title>src/index.js</title>
<g id="a_node22"><a xlink:href="src/index.js" xlink:title="index.js">
<path fill="#ffffcc" stroke="black" d="M64,-225C64,-225 22,-225 22,-225 19,-225 16,-222 16,-219 16,-219 16,-213 16,-213 16,-210 19,-207 22,-207 22,-207 64,-207 64,-207 67,-207 70,-210 70,-213 70,-213 70,-219 70,-219 70,-222 67,-225 64,-225"/>
<text text-anchor="middle" x="43" y="-213.8" font-family="Helvetica,sans-Serif" font-size="9.00">index.js</text>
</a>
</g>
</g>
<!-- src/index.js&#45;&gt;src/App.js -->
<g id="edge26" class="edge">
<title>src/index.js&#45;&gt;src/App.js</title>
<path fill="none" stroke="#000000" stroke-width="2" stroke-opacity="0.200000" d="M49.1,-225.1C60.35,-245.18 87.36,-293.39 100.93,-317.6"/>
<polygon fill="#000000" fill-opacity="0.200000" stroke="#000000" stroke-width="2" stroke-opacity="0.200000" points="99.16,-318.73 103.92,-322.94 102.82,-316.68 99.16,-318.73"/>
</g>
<!-- src/styles/index.css -->
<g id="node23" class="node">
<title>src/styles/index.css</title>
<g id="a_node23"><a xlink:href="src/styles/index.css" xlink:title="index.css">
<path fill="#ffffcc" stroke="black" d="M457.5,-42C457.5,-42 410.5,-42 410.5,-42 407.5,-42 404.5,-39 404.5,-36 404.5,-36 404.5,-30 404.5,-30 404.5,-27 407.5,-24 410.5,-24 410.5,-24 457.5,-24 457.5,-24 460.5,-24 463.5,-27 463.5,-30 463.5,-30 463.5,-36 463.5,-36 463.5,-39 460.5,-42 457.5,-42"/>
<text text-anchor="middle" x="434" y="-30.8" font-family="Helvetica,sans-Serif" font-size="9.00">index.css</text>
</a>
</g>
</g>
<!-- src/index.js&#45;&gt;src/styles/index.css -->
<g id="edge27" class="edge">
<title>src/index.js&#45;&gt;src/styles/index.css</title>
<path fill="none" stroke="#000000" stroke-width="2" stroke-opacity="0.200000" d="M54.37,-206.76C82.54,-182.13 163.73,-114.42 243,-79 294.47,-56 359.14,-43.48 398.21,-37.52"/>
<polygon fill="#000000" fill-opacity="0.200000" stroke="#000000" stroke-width="2" stroke-opacity="0.200000" points="398.63,-39.58 404.26,-36.62 398.01,-35.43 398.63,-39.58"/>
</g>
<!-- src/test/App.test.js -->
<g id="node24" class="node">
<title>src/test/App.test.js</title>
<g id="a_node24"><a xlink:href="src/test/App.test.js" xlink:title="App.test.js">
<path fill="#ffffcc" stroke="black" d="M216.5,-493C216.5,-493 163.5,-493 163.5,-493 160.5,-493 157.5,-490 157.5,-487 157.5,-487 157.5,-481 157.5,-481 157.5,-478 160.5,-475 163.5,-475 163.5,-475 216.5,-475 216.5,-475 219.5,-475 222.5,-478 222.5,-481 222.5,-481 222.5,-487 222.5,-487 222.5,-490 219.5,-493 216.5,-493"/>
<text text-anchor="middle" x="190" y="-481.8" font-family="Helvetica,sans-Serif" font-size="9.00">App.test.js</text>
</a>
</g>
</g>
<!-- src/test/App.test.js&#45;&gt;src/components/AdminPage/AdminPage.jsx -->
<g id="edge28" class="edge">
<title>src/test/App.test.js&#45;&gt;src/components/AdminPage/AdminPage.jsx</title>
<path fill="none" stroke="#000000" stroke-width="2" stroke-opacity="0.200000" d="M222.71,-489.57C235.18,-491.76 249.76,-494.33 263.42,-496.73"/>
<polygon fill="#000000" fill-opacity="0.200000" stroke="#000000" stroke-width="2" stroke-opacity="0.200000" points="263.34,-498.84 269.62,-497.82 264.07,-494.71 263.34,-498.84"/>
</g>
<!-- src/test/App.test.js&#45;&gt;src/components/NavigationBar.js -->
<g id="edge36" class="edge">
<title>src/test/App.test.js&#45;&gt;src/components/NavigationBar.js</title>
<path fill="none" stroke="#000000" stroke-width="2" stroke-opacity="0.200000" d="M222.77,-478.22C227.49,-476.05 231.83,-473.08 235,-469 248.69,-451.4 228.25,-385.72 243,-369 247.89,-363.46 254.34,-359.78 261.32,-357.38"/>
<polygon fill="#000000" fill-opacity="0.200000" stroke="#000000" stroke-width="2" stroke-opacity="0.200000" points="262.11,-359.34 267.29,-355.66 260.94,-355.31 262.11,-359.34"/>
</g>
<!-- src/test/App.test.js&#45;&gt;src/components/Profile.jsx -->
<g id="edge37" class="edge">
<title>src/test/App.test.js&#45;&gt;src/components/Profile.jsx</title>
<path fill="none" stroke="#000000" stroke-width="2" stroke-opacity="0.200000" d="M222.71,-480.55C239.09,-478.77 259.11,-476.59 275.89,-474.77"/>
<polygon fill="#000000" fill-opacity="0.200000" stroke="#000000" stroke-width="2" stroke-opacity="0.200000" points="276.18,-476.85 281.91,-474.11 275.72,-472.67 276.18,-476.85"/>
</g>
<!-- src/test/App.test.js&#45;&gt;src/LoginBackend.js -->
<g id="edge38" class="edge">
<title>src/test/App.test.js&#45;&gt;src/LoginBackend.js</title>
<path fill="none" stroke="#000000" stroke-width="2" stroke-opacity="0.200000" d="M222.88,-478.31C227.59,-476.13 231.89,-473.13 235,-469 256.95,-439.85 222.25,-335.01 243,-305 278.55,-253.59 334.33,-298.87 372,-249 388.21,-227.53 362.21,-209.18 380,-189 381.18,-187.66 382.47,-186.44 383.85,-185.34"/>
<polygon fill="#000000" fill-opacity="0.200000" stroke="#000000" stroke-width="2" stroke-opacity="0.200000" points="385.04,-187.07 388.85,-181.98 382.7,-183.58 385.04,-187.07"/>
</g>
<!-- src/test/App.test.js&#45;&gt;src/components/Bookings/GymBooking.js -->
<g id="edge33" class="edge">
<title>src/test/App.test.js&#45;&gt;src/components/Bookings/GymBooking.js</title>
<path fill="none" stroke="#000000" stroke-width="2" stroke-opacity="0.200000" d="M222.63,-478.11C227.36,-475.95 231.74,-473.01 235,-469 253.36,-446.41 223.43,-425.55 243,-404 248.53,-397.91 255.94,-394.01 263.82,-391.55"/>
<polygon fill="#000000" fill-opacity="0.200000" stroke="#000000" stroke-width="2" stroke-opacity="0.200000" points="264.65,-393.51 269.92,-389.95 263.58,-389.44 264.65,-393.51"/>
</g>
<!-- src/test/App.test.js&#45;&gt;src/components/Bookings/LaundryBooking.jsx -->
<g id="edge34" class="edge">
<title>src/test/App.test.js&#45;&gt;src/components/Bookings/LaundryBooking.jsx</title>
<path fill="none" stroke="#000000" stroke-width="2" stroke-opacity="0.200000" d="M222.77,-477.65C227.38,-475.54 231.67,-472.74 235,-469 246.19,-456.44 230.97,-443.76 243,-432 245.98,-429.09 249.41,-426.72 253.1,-424.82"/>
<polygon fill="#000000" fill-opacity="0.200000" stroke="#000000" stroke-width="2" stroke-opacity="0.200000" points="254.04,-426.7 258.68,-422.34 252.34,-422.86 254.04,-426.7"/>
</g>
<!-- src/test/App.test.js&#45;&gt;src/components/Login.jsx -->
<g id="edge35" class="edge">
<title>src/test/App.test.js&#45;&gt;src/components/Login.jsx</title>
<path fill="none" stroke="#000000" stroke-width="2" stroke-opacity="0.200000" d="M222.84,-478.27C227.55,-476.1 231.87,-473.11 235,-469 252.43,-446.17 224.34,-361.84 243,-340 251.38,-330.2 264.61,-325.98 277.15,-324.39"/>
<polygon fill="#000000" fill-opacity="0.200000" stroke="#000000" stroke-width="2" stroke-opacity="0.200000" points="277.45,-326.47 283.22,-323.8 277.05,-322.29 277.45,-326.47"/>
</g>
<!-- src/test/App.test.js&#45;&gt;src/components/AdminPage/BookingHistory.jsx -->
<g id="edge29" class="edge">
<title>src/test/App.test.js&#45;&gt;src/components/AdminPage/BookingHistory.jsx</title>
<path fill="none" stroke="#000000" stroke-width="2" stroke-opacity="0.200000" d="M200.38,-493.18C210.11,-502.01 226.23,-514.76 243,-520 295.01,-536.25 358.74,-525.38 397.58,-515.57"/>
<polygon fill="#000000" fill-opacity="0.200000" stroke="#000000" stroke-width="2" stroke-opacity="0.200000" points="398.31,-517.54 403.59,-514 397.26,-513.48 398.31,-517.54"/>
</g>
<!-- src/test/App.test.js&#45;&gt;src/components/AdminPage/HandleBookings.jsx -->
<g id="edge30" class="edge">
<title>src/test/App.test.js&#45;&gt;src/components/AdminPage/HandleBookings.jsx</title>
<path fill="none" stroke="#000000" stroke-width="2" stroke-opacity="0.200000" d="M198.32,-493.1C207.47,-503.72 224.25,-520.74 243,-528 285.36,-544.41 337.1,-545.2 375.88,-542.42"/>
<polygon fill="#000000" fill-opacity="0.200000" stroke="#000000" stroke-width="2" stroke-opacity="0.200000" points="376.17,-544.5 381.99,-541.94 375.84,-540.31 376.17,-544.5"/>
</g>
<!-- src/test/App.test.js&#45;&gt;src/components/AdminPage/HandleUsers.jsx -->
<g id="edge31" class="edge">
<title>src/test/App.test.js&#45;&gt;src/components/AdminPage/HandleUsers.jsx</title>
<path fill="none" stroke="#000000" stroke-width="2" stroke-opacity="0.200000" d="M196.75,-493.23C205.18,-505.89 222.2,-528.31 243,-539 286.85,-561.53 343.54,-566.7 383.55,-567.05"/>
<polygon fill="#000000" fill-opacity="0.200000" stroke="#000000" stroke-width="2" stroke-opacity="0.200000" points="383.82,-569.15 389.82,-567.06 383.83,-564.95 383.82,-569.15"/>
</g>
<!-- src/test/App.test.js&#45;&gt;src/components/AdminPage/MyFacilities.jsx -->
<g id="edge32" class="edge">
<title>src/test/App.test.js&#45;&gt;src/components/AdminPage/MyFacilities.jsx</title>
<path fill="none" stroke="#000000" stroke-width="2" stroke-opacity="0.200000" d="M194.9,-493.21C202.02,-508.81 218.66,-540.26 243,-556 286.31,-584 345.79,-592.45 386.6,-594.73"/>
<polygon fill="#000000" fill-opacity="0.200000" stroke="#000000" stroke-width="2" stroke-opacity="0.200000" points="386.64,-596.83 392.73,-595.03 386.85,-592.64 386.64,-596.83"/>
</g>
<!-- src/test/setupTests.js -->
<g id="node25" class="node">
<title>src/test/setupTests.js</title>
<g id="a_node25"><a xlink:href="src/test/setupTests.js" xlink:title="setupTests.js">
<path fill="#ccffcc" stroke="black" d="M221,-463C221,-463 159,-463 159,-463 156,-463 153,-460 153,-457 153,-457 153,-451 153,-451 153,-448 156,-445 159,-445 159,-445 221,-445 221,-445 224,-445 227,-448 227,-451 227,-451 227,-457 227,-457 227,-460 224,-463 221,-463"/>
<text text-anchor="middle" x="190" y="-451.8" font-family="Helvetica,sans-Serif" font-size="9.00">setupTests.js</text>
</a>
</g>
</g>
</g>
</svg>
